<mxfile host="app.diagrams.net" modified="2020-12-14T10:10:36.387Z" agent="5.0 (Windows NT 10.0; Win64; x64) AppleWebKit/537.36 (KHTML, like Gecko) Chrome/87.0.4280.88 Safari/537.36" etag="qwIS73fj7ve8KkeeQUHb" version="13.9.9" type="github">
  <diagram id="C5RBs43oDa-KdzZeNtuy" name="Page-1">
    <mxGraphModel dx="494" dy="752" grid="1" gridSize="10" guides="1" tooltips="1" connect="1" arrows="1" fold="1" page="1" pageScale="1" pageWidth="827" pageHeight="1169" math="0" shadow="0">
      <root>
        <mxCell id="WIyWlLk6GJQsqaUBKTNV-0" />
        <mxCell id="WIyWlLk6GJQsqaUBKTNV-1" parent="WIyWlLk6GJQsqaUBKTNV-0" />
        <mxCell id="WIyWlLk6GJQsqaUBKTNV-2" value="" style="rounded=0;html=1;jettySize=auto;orthogonalLoop=1;fontSize=11;endArrow=block;endFill=0;endSize=8;strokeWidth=1;shadow=0;labelBackgroundColor=none;edgeStyle=orthogonalEdgeStyle;" parent="WIyWlLk6GJQsqaUBKTNV-1" source="WIyWlLk6GJQsqaUBKTNV-3" target="WIyWlLk6GJQsqaUBKTNV-6" edge="1">
          <mxGeometry relative="1" as="geometry" />
        </mxCell>
        <mxCell id="WIyWlLk6GJQsqaUBKTNV-3" value="开始" style="rounded=1;whiteSpace=wrap;html=1;fontSize=12;glass=0;strokeWidth=1;shadow=0;" parent="WIyWlLk6GJQsqaUBKTNV-1" vertex="1">
          <mxGeometry x="160" y="80" width="120" height="40" as="geometry" />
        </mxCell>
        <mxCell id="WIyWlLk6GJQsqaUBKTNV-4" value="Yes" style="rounded=0;html=1;jettySize=auto;orthogonalLoop=1;fontSize=11;endArrow=block;endFill=0;endSize=8;strokeWidth=1;shadow=0;labelBackgroundColor=none;edgeStyle=orthogonalEdgeStyle;exitX=0.5;exitY=1;exitDx=0;exitDy=0;entryX=0.5;entryY=0;entryDx=0;entryDy=0;" parent="WIyWlLk6GJQsqaUBKTNV-1" source="WIyWlLk6GJQsqaUBKTNV-6" target="oyDcqEM6i9TC-5nB7iKt-22" edge="1">
          <mxGeometry y="20" relative="1" as="geometry">
            <mxPoint as="offset" />
            <mxPoint x="220" y="410" as="sourcePoint" />
            <mxPoint x="220" y="460" as="targetPoint" />
          </mxGeometry>
        </mxCell>
        <mxCell id="WIyWlLk6GJQsqaUBKTNV-6" value="发布货源" style="rhombus;whiteSpace=wrap;html=1;shadow=0;fontFamily=Helvetica;fontSize=12;align=center;strokeWidth=1;spacing=6;spacingTop=-4;" parent="WIyWlLk6GJQsqaUBKTNV-1" vertex="1">
          <mxGeometry x="170" y="170" width="100" height="80" as="geometry" />
        </mxCell>
        <mxCell id="WIyWlLk6GJQsqaUBKTNV-8" value="No" style="rounded=0;html=1;jettySize=auto;orthogonalLoop=1;fontSize=11;endArrow=block;endFill=0;endSize=8;strokeWidth=1;shadow=0;labelBackgroundColor=none;edgeStyle=orthogonalEdgeStyle;exitX=0.5;exitY=1;exitDx=0;exitDy=0;" parent="WIyWlLk6GJQsqaUBKTNV-1" source="oyDcqEM6i9TC-5nB7iKt-22" target="WIyWlLk6GJQsqaUBKTNV-11" edge="1">
          <mxGeometry x="0.3333" y="20" relative="1" as="geometry">
            <mxPoint as="offset" />
            <mxPoint x="220" y="520" as="sourcePoint" />
          </mxGeometry>
        </mxCell>
        <mxCell id="oyDcqEM6i9TC-5nB7iKt-25" value="" style="edgeStyle=orthogonalEdgeStyle;curved=1;orthogonalLoop=1;jettySize=auto;html=1;endArrow=classic;endFill=1;" edge="1" parent="WIyWlLk6GJQsqaUBKTNV-1" source="WIyWlLk6GJQsqaUBKTNV-11" target="oyDcqEM6i9TC-5nB7iKt-24">
          <mxGeometry relative="1" as="geometry" />
        </mxCell>
        <mxCell id="oyDcqEM6i9TC-5nB7iKt-29" value="" style="edgeStyle=orthogonalEdgeStyle;curved=1;orthogonalLoop=1;jettySize=auto;html=1;endArrow=classic;endFill=1;" edge="1" parent="WIyWlLk6GJQsqaUBKTNV-1" source="WIyWlLk6GJQsqaUBKTNV-11" target="oyDcqEM6i9TC-5nB7iKt-28">
          <mxGeometry relative="1" as="geometry" />
        </mxCell>
        <mxCell id="WIyWlLk6GJQsqaUBKTNV-11" value="待装" style="rounded=1;whiteSpace=wrap;html=1;fontSize=12;glass=0;strokeWidth=1;shadow=0;" parent="WIyWlLk6GJQsqaUBKTNV-1" vertex="1">
          <mxGeometry x="160" y="695" width="120" height="50" as="geometry" />
        </mxCell>
        <mxCell id="oyDcqEM6i9TC-5nB7iKt-6" value="yes" style="edgeStyle=orthogonalEdgeStyle;rounded=0;orthogonalLoop=1;jettySize=auto;html=1;" edge="1" parent="WIyWlLk6GJQsqaUBKTNV-1" source="oyDcqEM6i9TC-5nB7iKt-2" target="oyDcqEM6i9TC-5nB7iKt-5">
          <mxGeometry relative="1" as="geometry" />
        </mxCell>
        <mxCell id="oyDcqEM6i9TC-5nB7iKt-19" value="no" style="edgeStyle=orthogonalEdgeStyle;orthogonalLoop=1;jettySize=auto;html=1;endArrow=classic;endFill=1;rounded=1;entryX=0;entryY=0.75;entryDx=0;entryDy=0;" edge="1" parent="WIyWlLk6GJQsqaUBKTNV-1" source="oyDcqEM6i9TC-5nB7iKt-2" target="oyDcqEM6i9TC-5nB7iKt-18">
          <mxGeometry relative="1" as="geometry">
            <mxPoint x="450" y="640" as="targetPoint" />
            <Array as="points">
              <mxPoint x="370" y="596" />
            </Array>
          </mxGeometry>
        </mxCell>
        <mxCell id="oyDcqEM6i9TC-5nB7iKt-2" value="保险自动开关是否开启" style="rhombus;whiteSpace=wrap;html=1;" vertex="1" parent="WIyWlLk6GJQsqaUBKTNV-1">
          <mxGeometry x="330" y="450" width="80" height="80" as="geometry" />
        </mxCell>
        <mxCell id="oyDcqEM6i9TC-5nB7iKt-23" value="子流程" style="edgeStyle=orthogonalEdgeStyle;orthogonalLoop=1;jettySize=auto;html=1;entryX=0.448;entryY=1.01;entryDx=0;entryDy=0;entryPerimeter=0;endArrow=classic;endFill=1;curved=1;" edge="1" parent="WIyWlLk6GJQsqaUBKTNV-1" source="oyDcqEM6i9TC-5nB7iKt-5" target="oyDcqEM6i9TC-5nB7iKt-7">
          <mxGeometry relative="1" as="geometry" />
        </mxCell>
        <mxCell id="oyDcqEM6i9TC-5nB7iKt-5" value="建单成功，订单转状态——待装" style="shape=parallelogram;perimeter=parallelogramPerimeter;whiteSpace=wrap;html=1;fixedSize=1;" vertex="1" parent="WIyWlLk6GJQsqaUBKTNV-1">
          <mxGeometry x="470" y="460" width="120" height="60" as="geometry" />
        </mxCell>
        <mxCell id="oyDcqEM6i9TC-5nB7iKt-7" value="" style="shape=process;whiteSpace=wrap;html=1;backgroundOutline=1;" vertex="1" parent="WIyWlLk6GJQsqaUBKTNV-1">
          <mxGeometry x="460" y="110" width="310" height="200" as="geometry" />
        </mxCell>
        <mxCell id="oyDcqEM6i9TC-5nB7iKt-11" value="" style="edgeStyle=orthogonalEdgeStyle;rounded=0;orthogonalLoop=1;jettySize=auto;html=1;" edge="1" parent="WIyWlLk6GJQsqaUBKTNV-1" source="oyDcqEM6i9TC-5nB7iKt-9" target="oyDcqEM6i9TC-5nB7iKt-10">
          <mxGeometry relative="1" as="geometry" />
        </mxCell>
        <mxCell id="oyDcqEM6i9TC-5nB7iKt-9" value="购买保险" style="rounded=1;whiteSpace=wrap;html=1;" vertex="1" parent="WIyWlLk6GJQsqaUBKTNV-1">
          <mxGeometry x="530" y="120" width="80" height="20" as="geometry" />
        </mxCell>
        <mxCell id="oyDcqEM6i9TC-5nB7iKt-13" value="no" style="edgeStyle=orthogonalEdgeStyle;rounded=0;orthogonalLoop=1;jettySize=auto;html=1;" edge="1" parent="WIyWlLk6GJQsqaUBKTNV-1" source="oyDcqEM6i9TC-5nB7iKt-10" target="oyDcqEM6i9TC-5nB7iKt-12">
          <mxGeometry y="10" relative="1" as="geometry">
            <mxPoint as="offset" />
          </mxGeometry>
        </mxCell>
        <mxCell id="oyDcqEM6i9TC-5nB7iKt-17" value="yes" style="edgeStyle=orthogonalEdgeStyle;rounded=0;orthogonalLoop=1;jettySize=auto;html=1;endArrow=classic;endFill=1;" edge="1" parent="WIyWlLk6GJQsqaUBKTNV-1" source="oyDcqEM6i9TC-5nB7iKt-10" target="oyDcqEM6i9TC-5nB7iKt-16">
          <mxGeometry y="-10" relative="1" as="geometry">
            <Array as="points">
              <mxPoint x="570" y="240" />
              <mxPoint x="570" y="240" />
            </Array>
            <mxPoint as="offset" />
          </mxGeometry>
        </mxCell>
        <mxCell id="oyDcqEM6i9TC-5nB7iKt-10" value="货主金额是否充足" style="rhombus;whiteSpace=wrap;html=1;rounded=1;" vertex="1" parent="WIyWlLk6GJQsqaUBKTNV-1">
          <mxGeometry x="530" y="160" width="80" height="60" as="geometry" />
        </mxCell>
        <mxCell id="oyDcqEM6i9TC-5nB7iKt-12" value="建单失败" style="shape=parallelogram;perimeter=parallelogramPerimeter;whiteSpace=wrap;html=1;fixedSize=1;rounded=1;" vertex="1" parent="WIyWlLk6GJQsqaUBKTNV-1">
          <mxGeometry x="660" y="170" width="75" height="40" as="geometry" />
        </mxCell>
        <mxCell id="oyDcqEM6i9TC-5nB7iKt-16" value="建单成功" style="shape=parallelogram;perimeter=parallelogramPerimeter;whiteSpace=wrap;html=1;fixedSize=1;rounded=1;" vertex="1" parent="WIyWlLk6GJQsqaUBKTNV-1">
          <mxGeometry x="530" y="260" width="70" height="40" as="geometry" />
        </mxCell>
        <mxCell id="oyDcqEM6i9TC-5nB7iKt-18" value="建单成功，状态流转——待装" style="shape=parallelogram;perimeter=parallelogramPerimeter;whiteSpace=wrap;html=1;fixedSize=1;" vertex="1" parent="WIyWlLk6GJQsqaUBKTNV-1">
          <mxGeometry x="470" y="560" width="100" height="50" as="geometry" />
        </mxCell>
        <mxCell id="oyDcqEM6i9TC-5nB7iKt-21" value="" style="edgeStyle=orthogonalEdgeStyle;rounded=1;orthogonalLoop=1;jettySize=auto;html=1;endArrow=classic;endFill=1;exitX=1;exitY=0.5;exitDx=0;exitDy=0;" edge="1" parent="WIyWlLk6GJQsqaUBKTNV-1" source="oyDcqEM6i9TC-5nB7iKt-22" target="oyDcqEM6i9TC-5nB7iKt-2">
          <mxGeometry relative="1" as="geometry">
            <mxPoint x="270" y="490" as="sourcePoint" />
          </mxGeometry>
        </mxCell>
        <mxCell id="oyDcqEM6i9TC-5nB7iKt-22" value="&lt;span&gt;抢单/配单&lt;/span&gt;" style="rounded=1;whiteSpace=wrap;html=1;" vertex="1" parent="WIyWlLk6GJQsqaUBKTNV-1">
          <mxGeometry x="165" y="465" width="110" height="50" as="geometry" />
        </mxCell>
        <mxCell id="oyDcqEM6i9TC-5nB7iKt-33" value="no" style="edgeStyle=orthogonalEdgeStyle;orthogonalLoop=1;jettySize=auto;html=1;endArrow=classic;endFill=1;exitX=1;exitY=0.5;exitDx=0;exitDy=0;rounded=0;" edge="1" parent="WIyWlLk6GJQsqaUBKTNV-1" source="oyDcqEM6i9TC-5nB7iKt-24" target="oyDcqEM6i9TC-5nB7iKt-32">
          <mxGeometry relative="1" as="geometry" />
        </mxCell>
        <mxCell id="oyDcqEM6i9TC-5nB7iKt-24" value="是否购买保险" style="rhombus;whiteSpace=wrap;html=1;rounded=1;shadow=0;strokeWidth=1;glass=0;" vertex="1" parent="WIyWlLk6GJQsqaUBKTNV-1">
          <mxGeometry x="350" y="680" width="80" height="80" as="geometry" />
        </mxCell>
        <mxCell id="oyDcqEM6i9TC-5nB7iKt-28" value="在途" style="whiteSpace=wrap;html=1;rounded=1;shadow=0;strokeWidth=1;glass=0;" vertex="1" parent="WIyWlLk6GJQsqaUBKTNV-1">
          <mxGeometry x="160" y="810" width="120" height="60" as="geometry" />
        </mxCell>
        <mxCell id="oyDcqEM6i9TC-5nB7iKt-35" value="yes" style="edgeStyle=orthogonalEdgeStyle;rounded=0;orthogonalLoop=1;jettySize=auto;html=1;endArrow=classic;endFill=1;" edge="1" parent="WIyWlLk6GJQsqaUBKTNV-1" source="oyDcqEM6i9TC-5nB7iKt-32" target="oyDcqEM6i9TC-5nB7iKt-34">
          <mxGeometry relative="1" as="geometry" />
        </mxCell>
        <mxCell id="oyDcqEM6i9TC-5nB7iKt-32" value="保险自动开关是否开启" style="rhombus;whiteSpace=wrap;html=1;rounded=1;shadow=0;strokeWidth=1;glass=0;" vertex="1" parent="WIyWlLk6GJQsqaUBKTNV-1">
          <mxGeometry x="480" y="680" width="80" height="80" as="geometry" />
        </mxCell>
        <mxCell id="oyDcqEM6i9TC-5nB7iKt-37" value="" style="edgeStyle=orthogonalEdgeStyle;rounded=0;orthogonalLoop=1;jettySize=auto;html=1;endArrow=classic;endFill=1;" edge="1" parent="WIyWlLk6GJQsqaUBKTNV-1" source="oyDcqEM6i9TC-5nB7iKt-34" target="oyDcqEM6i9TC-5nB7iKt-36">
          <mxGeometry relative="1" as="geometry" />
        </mxCell>
        <mxCell id="oyDcqEM6i9TC-5nB7iKt-34" value="购买保险流程" style="whiteSpace=wrap;html=1;rounded=1;shadow=0;strokeWidth=1;glass=0;" vertex="1" parent="WIyWlLk6GJQsqaUBKTNV-1">
          <mxGeometry x="620" y="690" width="120" height="60" as="geometry" />
        </mxCell>
        <mxCell id="oyDcqEM6i9TC-5nB7iKt-39" value="" style="edgeStyle=orthogonalEdgeStyle;rounded=0;orthogonalLoop=1;jettySize=auto;html=1;endArrow=classic;endFill=1;" edge="1" parent="WIyWlLk6GJQsqaUBKTNV-1" source="oyDcqEM6i9TC-5nB7iKt-36" target="oyDcqEM6i9TC-5nB7iKt-38">
          <mxGeometry relative="1" as="geometry" />
        </mxCell>
        <mxCell id="oyDcqEM6i9TC-5nB7iKt-41" value="" style="edgeStyle=orthogonalEdgeStyle;rounded=0;orthogonalLoop=1;jettySize=auto;html=1;endArrow=classic;endFill=1;" edge="1" parent="WIyWlLk6GJQsqaUBKTNV-1" source="oyDcqEM6i9TC-5nB7iKt-36" target="oyDcqEM6i9TC-5nB7iKt-40">
          <mxGeometry relative="1" as="geometry" />
        </mxCell>
        <mxCell id="oyDcqEM6i9TC-5nB7iKt-36" value="购买保险是否成功" style="rhombus;whiteSpace=wrap;html=1;rounded=1;shadow=0;strokeWidth=1;glass=0;" vertex="1" parent="WIyWlLk6GJQsqaUBKTNV-1">
          <mxGeometry x="640" y="820" width="80" height="80" as="geometry" />
        </mxCell>
        <mxCell id="oyDcqEM6i9TC-5nB7iKt-38" value="订单装货成功，状态转为在途" style="shape=parallelogram;perimeter=parallelogramPerimeter;whiteSpace=wrap;html=1;fixedSize=1;rounded=1;shadow=0;strokeWidth=1;glass=0;" vertex="1" parent="WIyWlLk6GJQsqaUBKTNV-1">
          <mxGeometry x="780" y="830" width="120" height="60" as="geometry" />
        </mxCell>
        <mxCell id="oyDcqEM6i9TC-5nB7iKt-40" value="订单装货中断，必须购买成功才允许，状态流转" style="shape=parallelogram;perimeter=parallelogramPerimeter;whiteSpace=wrap;html=1;fixedSize=1;rounded=1;shadow=0;strokeWidth=1;glass=0;" vertex="1" parent="WIyWlLk6GJQsqaUBKTNV-1">
          <mxGeometry x="620" y="990" width="120" height="60" as="geometry" />
        </mxCell>
      </root>
    </mxGraphModel>
  </diagram>
</mxfile>
